HIERARCHY
ROOT Joint1
{
	OFFSET 0.000000 0.000000 0.000000
	CHANNELS 6 Xposition Yposition Zposition Xrotation Yrotation Zrotation
	JOINT Joint2
	{
		OFFSET -0.000000 0.000000 1.456275
		CHANNELS 6 Xposition Yposition Zposition Xrotation Yrotation Zrotation
		JOINT Joint3
		{
			OFFSET -0.000000 0.000002 1.471446
			CHANNELS 6 Xposition Yposition Zposition Xrotation Yrotation Zrotation
			JOINT Joint4
			{
				OFFSET 0.625745 0.000000 0.917755
				CHANNELS 6 Xposition Yposition Zposition Xrotation Yrotation Zrotation
				JOINT Joint5
				{
					OFFSET -0.629534 0.000001 0.940221
					CHANNELS 6 Xposition Yposition Zposition Xrotation Yrotation Zrotation
					JOINT Joint6
					{
						OFFSET -0.000001 0.113772 1.960660
						CHANNELS 6 Xposition Yposition Zposition Xrotation Yrotation Zrotation
						JOINT Joint7
						{
							OFFSET -0.669733 -0.113771 0.388340
							CHANNELS 6 Xposition Yposition Zposition Xrotation Yrotation Zrotation
							End Site
							{
								OFFSET 0.005509 0.005509 0.438980
							}
						}
					}
				}
			}
		}
	}
}
MOTION
Frames: 24
Frame Time: 0.041667
0.000000 0.000000 0.000000 -0.000000 1.019410 11.226960 -0.000000 0.000000 1.456275 0.000000 -12.775534 -0.000000 -0.000000 0.000002 1.471446 -0.000000 -1.133463 -20.366992 0.625745 0.000000 0.917755 0.000004 146.544372 0.000000 -0.629534 0.000001 0.940221 0.000000 1.709736 -48.844271 -0.000001 0.113772 1.960660 -88.303875 -221.637207 0.000009 -0.669733 -0.113771 0.388340 -1.361600 3.327169 -184.881364 
0.000000 0.000000 0.000000 -0.000000 1.019410 10.775228 -0.000000 -0.000000 1.456275 0.000000 -14.071184 0.000000 -0.000000 0.000002 1.471446 -0.000000 -1.133462 -19.548980 0.625744 0.000000 0.917755 0.000004 146.080671 0.000001 -0.629534 0.000001 0.940220 0.000001 1.709737 -46.879949 -0.000001 0.113772 1.960661 -88.303875 -223.583661 0.000004 -0.669733 -0.113771 0.388340 -1.339404 3.345314 -186.496444 
0.000000 0.000000 0.000000 -0.000000 1.019410 10.444696 -0.000000 0.000000 1.456275 -0.000000 -15.019215 -0.000001 -0.000000 0.000002 1.471446 -0.000001 -1.133462 -18.950442 0.625744 0.000000 0.917755 0.000004 145.741361 -0.000001 -0.629534 0.000001 0.940221 -0.000000 1.709732 -45.442642 -0.000001 0.113772 1.960661 -88.303875 -225.007892 0.000000 -0.669733 -0.113771 0.388340 -1.322841 3.358190 -187.678230 
0.000000 0.000000 0.000000 -0.000000 1.019410 10.155247 -0.000000 -0.000000 1.456275 -0.000000 -15.849408 -0.000000 -0.000000 0.000002 1.471446 -0.000000 -1.133461 -18.426291 0.625745 0.000000 0.917755 0.000003 145.444234 0.000000 -0.629534 0.000001 0.940220 0.000001 1.709738 -44.183995 -0.000001 0.113772 1.960660 -88.303882 -226.255098 -0.000001 -0.669733 -0.113771 0.388340 -1.308124 3.369184 -188.713154 
0.000000 0.000000 0.000000 -0.000000 1.019410 9.795512 -0.000000 -0.000000 1.456275 0.000000 -16.881204 0.000000 -0.000000 0.000002 1.471446 -0.000000 -1.133464 -17.774871 0.625745 0.000000 0.917755 0.000003 145.074953 -0.000001 -0.629534 0.000001 0.940221 -0.000000 1.709734 -42.619704 -0.000001 0.113772 1.960660 -88.303875 -227.805155 0.000003 -0.669733 -0.113771 0.388340 -1.289555 3.382476 -189.999402 
0.000000 0.000000 0.000000 -0.000000 1.019410 9.303627 -0.000000 0.000000 1.456275 0.000000 -18.292024 -0.000000 -0.000000 0.000002 1.471446 -0.000001 -1.133464 -16.884149 0.625745 0.000000 0.917755 0.000003 144.570011 -0.000002 -0.629534 0.000001 0.940220 0.000001 1.709738 -40.480776 -0.000001 0.113772 1.960660 -88.303882 -229.924631 0.000008 -0.669733 -0.113771 0.388340 -1.263694 3.399967 -191.758203 
0.000000 0.000000 0.000000 -0.000000 1.019410 8.815794 -0.000000 0.000000 1.456275 0.000000 -19.691222 -0.000000 -0.000000 0.000002 1.471446 0.000000 -1.133458 -16.000761 0.625744 0.000000 0.917755 0.000003 144.069235 -0.000001 -0.629534 0.000001 0.940221 0.000000 1.709733 -38.359456 -0.000001 0.113772 1.960661 -88.303875 -232.026662 -0.000003 -0.669733 -0.113771 0.388340 -1.237525 3.416528 -193.502524 
0.000000 0.000000 0.000000 -0.000000 1.019410 8.465963 -0.000000 -0.000000 1.456275 -0.000000 -20.694611 -0.000001 -0.000000 0.000002 1.471445 -0.000000 -1.133461 -15.367270 0.625745 0.000000 0.917755 0.000003 143.710131 -0.000002 -0.629534 0.000001 0.940221 0.000001 1.709739 -36.838236 -0.000001 0.113772 1.960661 -88.303882 -233.534003 0.000005 -0.669733 -0.113771 0.388340 -1.218450 3.427910 -194.753446 
0.000000 0.000000 0.000000 -0.000000 1.019410 8.181016 -0.000000 -0.000000 1.456275 -0.000000 -21.511889 -0.000001 -0.000000 0.000002 1.471446 -0.000000 -1.133460 -14.851278 0.625745 0.000000 0.917755 0.000004 143.417607 -0.000000 -0.629534 0.000001 0.940220 0.000001 1.709737 -35.599154 -0.000001 0.113772 1.960661 -88.303875 -234.761853 0.000005 -0.669733 -0.113771 0.388340 -1.202739 3.436870 -195.772346 
0.000000 0.000000 0.000000 -0.000000 1.019410 7.836078 -0.000000 0.000000 1.456275 0.000000 -22.501242 0.000000 -0.000000 0.000002 1.471446 -0.000001 -1.133460 -14.226653 0.625744 0.000000 0.917755 0.000003 143.063517 -0.000000 -0.629534 0.000001 0.940221 -0.000000 1.709733 -34.099214 -0.000001 0.113772 1.960661 -88.303882 -236.248156 0.000001 -0.669733 -0.113771 0.388340 -1.183506 3.447341 -197.005796 
0.000000 0.000000 0.000000 -0.000000 1.019410 7.354973 -0.000000 0.000000 1.456275 0.000000 -23.881142 -0.000000 -0.000000 0.000002 1.471446 -0.000000 -1.133461 -13.355450 0.625745 0.000000 0.917756 0.000003 142.569667 0.000000 -0.629534 0.000001 0.940221 0.000000 1.709737 -32.007161 -0.000001 0.113772 1.960660 -88.303882 -238.321146 0.000001 -0.669733 -0.113771 0.388340 -1.156311 3.461257 -198.726184 
0.000000 0.000000 0.000000 -0.000000 1.019410 6.856361 -0.000000 0.000000 1.456275 -0.000000 -25.311260 -0.000000 -0.000000 0.000002 1.471445 -0.000000 -1.133461 -12.452541 0.625745 0.000000 0.917755 0.000003 142.057826 -0.000001 -0.629533 0.000001 0.940221 0.000000 1.709737 -29.838972 -0.000001 0.113772 1.960660 -88.303875 -240.469650 0.000004 -0.669733 -0.113771 0.388340 -1.127695 3.474802 -200.509205 
0.000000 0.000000 0.000000 -0.000000 1.019410 6.468624 -0.000000 0.000000 1.456275 0.000000 -26.423371 0.000000 -0.000000 0.000002 1.471445 0.000000 -1.133459 -11.750410 0.625744 0.000000 0.917755 0.000003 141.659790 -0.000002 -0.629534 0.000001 0.940221 0.000000 1.709738 -28.152913 -0.000002 0.113772 1.960660 -88.303875 -242.140369 -0.000005 -0.669734 -0.113771 0.388340 -1.105162 3.484726 -201.895775 
0.000000 0.000000 0.000000 -0.000000 1.019410 6.164223 -0.000000 0.000000 1.456275 0.000000 -27.296448 -0.000000 -0.000001 0.000002 1.471446 -0.000000 -1.133461 -11.199192 0.625744 0.000000 0.917755 0.000003 141.347309 -0.000000 -0.629534 0.000001 0.940221 0.000000 1.709738 -26.829243 -0.000001 0.113772 1.960661 -88.303875 -243.451984 -0.000001 -0.669733 -0.113771 0.388340 -1.087308 3.492133 -202.984343 
0.000000 0.000000 0.000000 -0.000000 1.019410 5.876644 -0.000000 0.000000 1.456275 0.000000 -28.121279 -0.000000 -0.000000 0.000002 1.471446 -0.000000 -1.133460 -10.678433 0.625744 0.000000 0.917755 0.000003 141.052094 -0.000001 -0.629534 0.000001 0.940221 0.000000 1.709737 -25.578727 -0.000001 0.113772 1.960661 -88.303875 -244.691145 0.000003 -0.669733 -0.113771 0.388341 -1.070310 3.498809 -204.012723 
0.000000 0.000000 0.000000 -0.000000 1.019410 5.555936 -0.000000 0.000000 1.456275 -0.000000 -29.041138 -0.000000 -0.000000 0.000002 1.471446 -0.000000 -1.133459 -10.097682 0.625745 0.000000 0.917755 0.000004 140.722879 -0.000001 -0.629534 0.000001 0.940221 -0.000000 1.709736 -24.184143 -0.000001 0.113772 1.960660 -88.303875 -246.073028 0.000006 -0.669733 -0.113771 0.388341 -1.051221 3.505901 -205.159608 
0.000000 0.000000 0.000000 -0.000000 1.019410 5.218406 -0.000000 -0.000000 1.456275 -0.000000 -30.009239 -0.000000 -0.000000 0.000002 1.471445 -0.000000 -1.133461 -9.486469 0.625744 0.000000 0.917755 0.000003 140.376397 -0.000001 -0.629534 0.000001 0.940221 0.000000 1.709738 -22.716412 -0.000001 0.113772 1.960660 -88.303875 -247.527422 0.000002 -0.669733 -0.113771 0.388340 -1.030975 3.512955 -206.366680 
0.000000 0.000000 0.000000 -0.000000 1.019410 4.896927 -0.000000 0.000000 1.456275 0.000000 -30.931304 0.000000 -0.000000 0.000002 1.471446 0.000000 -1.133461 -8.904325 0.625744 0.000000 0.917755 0.000004 140.046376 -0.000001 -0.629534 0.000001 0.940221 -0.000000 1.709734 -21.318482 -0.000001 0.113772 1.960661 -88.303875 -248.912639 0.000004 -0.669733 -0.113771 0.388340 -1.011560 3.519271 -207.516351 
0.000000 0.000000 0.000000 -0.000000 1.019410 4.616378 -0.000000 -0.000000 1.456275 -0.000000 -31.735975 0.000000 -0.000000 0.000002 1.471446 -0.000000 -1.133459 -8.396295 0.625744 0.000000 0.917754 0.000004 139.758375 -0.000001 -0.629534 0.000001 0.940221 0.000000 1.709736 -20.098525 -0.000001 0.113772 1.960661 -88.303875 -250.121473 0.000006 -0.669733 -0.113771 0.388340 -0.994519 3.524468 -208.519665 
0.000000 0.000000 0.000000 -0.000000 1.019410 4.369647 -0.000000 -0.000000 1.456275 0.000000 -32.443644 0.000000 -0.000001 0.000002 1.471445 0.000000 -1.133458 -7.949503 0.625744 0.000000 0.917756 0.000004 139.505111 -0.000001 -0.629534 0.000001 0.940221 0.000000 1.709736 -19.025632 -0.000001 0.113772 1.960660 -88.303875 -251.184633 0.000012 -0.669733 -0.113771 0.388339 -0.979454 3.528790 -209.402043 
0.000000 0.000000 0.000000 -0.000000 1.019410 4.141627 -0.000000 -0.000000 1.456275 0.000000 -33.097645 0.000001 -0.000000 0.000002 1.471445 0.000000 -1.133458 -7.536596 0.625745 0.000000 0.917755 0.000003 139.271041 -0.000001 -0.629534 0.000001 0.940221 0.000000 1.709736 -18.034097 -0.000001 0.113773 1.960661 -88.303875 -252.167142 0.000009 -0.669733 -0.113771 0.388340 -0.965476 3.532579 -210.217513 
0.000000 0.000000 0.000000 -0.000000 1.019410 3.917211 -0.000000 -0.000000 1.456275 -0.000000 -33.741319 0.000000 -0.000000 0.000002 1.471446 -0.000000 -1.133462 -7.130215 0.625744 0.000000 0.917755 0.000003 139.040658 -0.000001 -0.629533 0.000001 0.940221 0.000000 1.709736 -17.058237 -0.000001 0.113772 1.960661 -88.303875 -253.134133 0.000007 -0.669733 -0.113771 0.388341 -0.951669 3.536113 -211.020088 
0.000000 0.000000 0.000000 -0.000000 1.019410 3.684167 -0.000000 0.000000 1.456275 -0.000000 -34.409728 -0.000000 -0.000000 0.000002 1.471446 0.000000 -1.133460 -6.708211 0.625744 0.000000 0.917755 0.000003 138.801438 -0.000001 -0.629534 0.000001 0.940221 0.000000 1.709738 -16.044862 -0.000001 0.113772 1.960660 -88.303868 -254.138280 0.000007 -0.669733 -0.113771 0.388340 -0.937276 3.539575 -211.853507 
0.000000 0.000000 0.000000 -0.000000 1.019410 3.441770 -0.000000 0.000000 1.456275 0.000000 -35.104980 0.000000 -0.000001 0.000002 1.471446 0.000000 -1.133465 -6.269265 0.625744 0.000000 0.917755 0.000003 138.552587 -0.000001 -0.629533 0.000001 0.940221 0.000000 1.709737 -14.990804 -0.000001 0.113772 1.960660 -88.303882 -255.182752 -0.000003 -0.669733 -0.113771 0.388340 -0.922256 3.542955 -212.720409 
